<svg width="400" height="200" xmlns="http://www.w3.org/2000/svg">
  <g fill="none" fill-rule="evenodd">
    <path d="M143.248 79.327h12.522a6.807 6.807 0 016.804 6.803v31.75a6.807 6.807 0 01-6.804 6.804h-15.544a1.245 1.245 0 001.232-1.233c0-.368-.165-.718-.45-.952l-8.938-7.349a1.24 1.24 0 00-1.566 0l-2.873 2.363-8.094-6.655a1.24 1.24 0 00-1.565 0l-13.23 11.641c-.285.234-.406.54-.406.907 0 .371.155.72.406.96A6.81 6.81 0 01100 117.88V86.13a6.807 6.807 0 016.804-6.803h12.513l-.022.048-.075.178-.234.681-.073.234-.315 1.398-.043.245-.139 1.4-.018.384-.003.135.013.641.032.376.078.589.1.53.117.488.153.528.397 1.118.131.336.692 1.461.245.45.8 1.372.306.496 1.116 1.644.161.217 1.453 1.89.47.583 1.658 1.939.34.373 1.368 1.47.541.562.895.889-.18.15-.111.1c-.305.284-.593.585-.863.901a7.63 7.63 0 00-.37.474c-.18.25-.34.51-.48.783a4.792 4.792 0 00-.192.435 4.028 4.028 0 00-.26 1.182l-.005.35c.013.492.113.979.296 1.437.186.463.458.889.8 1.253.249.265.532.496.842.686.265.162.547.295.84.396.307.105.625.178.948.216.343.04.689.044 1.032.01h.004a4.467 4.467 0 001.633-.486c.22-.115.43-.25.625-.403a4.002 4.002 0 001.258-1.674 4.161 4.161 0 00.298-1.618l-.016-.289a4.055 4.055 0 00-.271-1.113 4.652 4.652 0 00-.21-.455 5.58 5.58 0 00-.493-.78 8.328 8.328 0 00-.26-.334c-.299-.357-.62-.693-.963-1.008l-.242-.206.41-.405 1.762-1.84.61-.668.946-1.066.616-.72.879-1.07.594-.748.874-1.168.44-.604.626-.935.521-.797.981-1.71.562-1.121.016-.035.43-1.04a.47.47 0 00.015-.041l.463-1.444.048-.21.201-1.15.039-.311.012-.19.014-.72-.004-.134-.037-.645-.046-.5-.228-1.443c-.003-.02-.007-.039-.013-.058l-.293-1.067-.1-.296-.211-.526zm5.958 30.925a2.682 2.682 0 00-2.656 2.657 2.683 2.683 0 002.656 2.656 2.684 2.684 0 002.657-2.656 2.683 2.683 0 00-2.657-2.657z" fill="#808080"/>
    <path d="M120.739 124.684h-15.215c-.676 0-1.188-.602-1.188-1.278 0-.368.12-.673.405-.907l13.231-11.64a1.24 1.24 0 011.565 0l8.094 6.654 2.873-2.363a1.24 1.24 0 011.566 0l8.939 7.35c.284.233.45.583.45.95a1.24 1.24 0 01-1.233 1.234h-2.97c-.25 0-.327-.041-.435-.17-.112-.154-.055-.299.08-.434l.823-.568c.153-.154.222-.337.003-.514l-6.439-5.3-7.637 6.424a2.46 2.46 0 01-1.565.561h-1.347zm28.467-14.432a2.682 2.682 0 00-2.656 2.657 2.683 2.683 0 002.656 2.656 2.684 2.684 0 002.657-2.656 2.683 2.683 0 00-2.657-2.657zm-19.745-8.27l-.895-.889-.541-.561-1.368-1.47-.34-.374-1.659-1.94-.47-.581-1.452-1.89-.161-.218-1.116-1.644-.307-.496-.8-1.373-.244-.449-.692-1.461-.13-.336-.398-1.118-.153-.528-.118-.488-.099-.53-.078-.589-.032-.376-.013-.641.003-.135.018-.384.139-1.4.043-.245.315-1.398.073-.234.234-.681.075-.178.372-.818.259-.486.36-.594.358-.528.255-.336.295-.355.323-.356.277-.279.676-.594.494-.404a.46.46 0 01.037-.028l.584-.396.464-.295.882-.465.043-.02 1.25-.52.116-.043 1.11-.325.47-.106.634-.127.421-.064.645-.08.44-.039.874-.046.342-.004.649.013.168.01.94.078 1.242.175.142.03 1.228.306.36.107.401.138.488.185.386.163.566.268.357.183.642.377.239.147.875.638.251.218.61.556.03.03.518.555.178.201.607.806.123.193.482.814.145.28.272.606.284.709.1.296.293 1.067c.006.019.01.038.013.058l.228 1.442.046.501.037.645.004.133-.014.72-.012.191-.039.31-.201 1.15-.048.21-.463 1.445a.47.47 0 01-.015.04l-.43 1.041-.016.035-.562 1.122-.98 1.71-.522.796-.626.935-.44.604-.874 1.168-.594.748-.88 1.07-.615.72-.947 1.066-.609.668-1.762 1.84-.41.405.242.206c.342.315.664.651.963 1.008.09.11.176.22.26.334a5.58 5.58 0 01.493.78c.078.148.148.3.21.455.14.356.236.733.271 1.113l.016.29a4.161 4.161 0 01-.298 1.617 4.002 4.002 0 01-1.258 1.674 4.175 4.175 0 01-.625.403 4.467 4.467 0 01-1.633.485h-.004c-.343.035-.69.032-1.032-.009a4.562 4.562 0 01-.949-.216 4.288 4.288 0 01-.839-.396c-.31-.19-.593-.42-.842-.686a4.004 4.004 0 01-.8-1.253 4.167 4.167 0 01-.296-1.437l.005-.35c.027-.405.114-.803.26-1.182.056-.148.121-.293.192-.435.14-.273.3-.534.48-.783a7.63 7.63 0 01.37-.474c.27-.316.558-.617.863-.9l.112-.101.179-.15z"/>
    <path d="M120.74 124.683h1.346a2.46 2.46 0 001.565-.561l7.637-6.424 6.44 5.3c.218.177.15.36-.004.514l-.823.568c-.135.135-.192.28-.08.435.108.129.187.169.438.169h-16.52zm10.586-20.553l.07.021c.023.011.042.027.063.041l.059.052c.146.135.287.275.423.419.096.103.19.208.279.316.114.138.22.282.318.432.041.067.08.134.117.204.032.06.06.122.086.186.044.11.077.226.087.345l-.002.222c-.03.407-.254.775-.601.988a1.719 1.719 0 01-.732.24l-.274.01-.232-.021a1.727 1.727 0 01-.62-.22l-.181-.131a1.243 1.243 0 01-.412-.707 1.517 1.517 0 01-.022-.14l-.006-.212c.003-.057.012-.114.025-.17.032-.124.077-.244.134-.358a2.69 2.69 0 01.254-.411c.156-.212.326-.414.508-.605.117-.123.237-.243.362-.359l.09-.08c.06-.04.062-.04.133-.062h.074zm-.456-29.546l.029-.003v24.777l-.062-.114a69.232 69.232 0 01-2.276-4.613 49.19 49.19 0 01-1.545-3.867 30.317 30.317 0 01-.93-3.184 17.046 17.046 0 01-.408-2.602c-.024-.374-.03-.749-.022-1.124.006-.327.02-.653.04-.978.033-.514.085-1.025.16-1.533.06-.4.133-.797.225-1.191a11.096 11.096 0 01.748-2.222c.07-.152.146-.303.225-.45.48-.886 1.128-1.702 1.978-2.249a4.126 4.126 0 011.838-.647zm3.213.062a11.7 11.7 0 011.666.476c.773.285 1.516.656 2.199 1.12a8.804 8.804 0 012.363 2.358c.37.55.677 1.144.916 1.764.347.918.561 1.88.637 2.858.022.256.035.512.04.769.005.238.004.478-.015.716a8.058 8.058 0 01-.3 1.575c-.122.42-.266.834-.432 1.24a17.85 17.85 0 01-.685 1.48 28.713 28.713 0 01-1.88 3.093 48.098 48.098 0 01-2.71 3.536 67.201 67.201 0 01-3.251 3.604 68.924 68.924 0 002.14-4.379c.368-.827.714-1.663 1.04-2.507.359-.927.683-1.867.97-2.819.213-.713.402-1.434.557-2.162.133-.625.237-1.256.302-1.891.054-.53.075-1.063.06-1.594-.004-.326-.016-.65-.035-.975-.078-1.307-.276-2.61-.657-3.863-.145-.475-.32-.94-.526-1.392-.488-1.062-1.169-2.056-2.09-2.78a5.588 5.588 0 00-.31-.227zM239.181 118.553l-8.139-17.3c-.68-1.442-1.084-1.968-1.764-2.58l-.661-.592c-.528-.508-.875-.978-.875-1.537 0-.8.638-1.473 1.8-1.473h7.066c1.11 0 1.8.573 1.8 1.428 0 .477-.22.835-.5 1.186-.332.417-.763.824-.763 1.565 0 .464.136.928.399 1.52l4.857 11.293 4.356-11.01c.269-.731.452-1.377.452-1.893 0-.804-.44-1.132-.78-1.49-.294-.313-.53-.643-.53-1.171 0-.864.707-1.428 1.66-1.428h4.351c1.22 0 1.8.626 1.8 1.428 0 .512-.298.987-.883 1.5l-.615.502c-.857.696-1.254 1.701-1.704 2.741l-6.598 15.785c-.78 1.846-1.94 4.407-3.713 6.509-1.801 2.134-4.23 3.794-7.519 3.794-2.755 0-4.421-1.305-4.421-3.187 0-1.723 1.284-3.097 2.97-3.097.924 0 1.404.433 1.892.88.403.367.812.743 1.617.743.749 0 1.446-.313 2.077-.82.964-.774 1.772-1.994 2.368-3.296zm47.824-.062c3.664 0 6.665-1.246 9.007-3.733 2.34-2.484 3.51-5.474 3.51-8.969 0-3.411-1.113-6.215-3.329-8.412-2.215-2.196-5.09-3.299-8.626-3.299-3.725 0-6.771 1.201-9.143 3.594-2.373 2.394-3.56 5.295-3.56 8.703 0 3.377 1.132 6.24 3.394 8.588 2.263 2.35 5.178 3.528 8.747 3.528zm-30.977-.27c2.118 0 3.625-1.417 3.625-3.458 0-1.994-1.556-3.413-3.625-3.413-2.168 0-3.719 1.422-3.719 3.413 0 2.04 1.553 3.457 3.719 3.457zm7.543-3.236l.515-.541c.614-.592.811-1.19.811-2.838v-9.74c0-1.425-.195-2.061-.804-2.605l-.606-.54c-.594-.521-.79-.845-.79-1.365 0-.74.578-1.346 1.507-1.557l4.117-.992c.395-.095.838-.188 1.184-.188.473 0 .86.155 1.133.424.272.269.433.656.433 1.14v15.423c0 1.556.19 2.279.844 2.826l.03.028.46.533c.578.559.818.93.818 1.439 0 .908-.691 1.428-1.8 1.428h-6.972c-1.058 0-1.754-.517-1.754-1.428 0-.512.24-.886.874-1.447zm-46.607 0l.515-.541c.614-.592.811-1.19.811-2.838V91.268c0-1.38-.147-2.056-.797-2.6l-.622-.598c-.537-.519-.733-.84-.733-1.357 0-.741.58-1.345 1.458-1.557l4.072-.991c.394-.096.838-.188 1.183-.188.47 0 .869.141 1.152.407.285.268.46.666.46 1.202v26.02c0 1.56.196 2.241.852 2.831l.525.552c.582.562.776.93.776 1.443 0 .377-.115.682-.322.913-.291.328-.78.515-1.431.515h-6.972c-.65 0-1.14-.187-1.43-.515-.208-.231-.323-.536-.323-.913 0-.513.191-.884.826-1.447zm-18.985-10.474v7.005c0 1.056.21 2.03 1.086 2.833l.566.545c.634.611.827.977.827 1.538 0 .855-.69 1.428-1.8 1.428h-7.86c-1.11 0-1.8-.573-1.8-1.428 0-.665.196-.98.83-1.541l.564-.543c.657-.592 1.086-1.397 1.086-2.832V92.801c0-1.14-.254-2.072-1.087-2.832l-.567-.546c-.583-.562-.827-.93-.827-1.493 0-.906.693-1.473 1.8-1.473h21.058c.804 0 1.512.178 1.963.618.315.306.516.737.538 1.336l.328 4.827c.033.603-.147 1.107-.498 1.417-.24.213-.566.341-.974.341-.516 0-.911-.193-1.264-.527-.317-.3-.6-.72-.918-1.216-.77-1.22-1.128-1.66-1.947-2.23-1.141-.836-2.88-1.123-6.166-1.123-1.897 0-3.094.082-3.848.275-.487.125-.769.287-.919.525-.154.244-.171.552-.171.929v9.484h4.938c1.181 0 2.013-.21 2.976-1.52l.005-.006c.386-.488.665-.847.93-1.086.31-.278.608-.409 1.002-.409.741 0 1.426.604 1.426 1.429v6.539c0 .875-.687 1.473-1.426 1.473-.366 0-.666-.13-.976-.402-.267-.234-.547-.583-.91-1.05-1.054-1.353-1.798-1.57-3.027-1.57h-4.938zm83.433-.165c0-2.346.515-4.032 1.581-5.046 1.054-1.002 2.187-1.508 3.404-1.508 1.675 0 3.183.93 4.545 2.76 1.39 1.871 2.078 4.4 2.078 7.582 0 2.348-.517 4.05-1.584 5.093-1.053 1.03-2.185 1.55-3.401 1.55-1.675 0-3.183-.937-4.544-2.781-1.391-1.886-2.079-4.438-2.079-7.65zm-13.78-12.687c2.124 0 3.625-1.186 3.625-3.233 0-1.998-1.5-3.186-3.624-3.186-2.174 0-3.672 1.19-3.672 3.186 0 1.997 1.5 3.233 3.672 3.233z" fill="gray"/>
  </g>
</svg>